<svg width="1249" height="1144" viewBox="0 0 1249 1144" fill="none" xmlns="http://www.w3.org/2000/svg">
<g opacity="0.75">
<g opacity="0.75">
<g opacity="0.75">
<path opacity="0.75" d="M701.121 558.876C701.286 559.191 701.261 559.582 701.067 559.939L666.024 623.536C665.79 623.966 665.327 624.281 664.814 624.369L589.06 636.926C588.547 637.014 588.068 636.848 587.789 636.505L547.078 585.466C546.805 585.132 546.781 584.651 547.014 584.22L582.057 520.624C582.291 520.193 582.754 519.878 583.267 519.79L659.021 507.234C659.534 507.146 660.013 507.311 660.283 507.653L700.994 558.693C701.053 558.75 701.092 558.813 701.121 558.876ZM663.874 622.005L698.152 559.798L658.329 509.869L584.228 522.148L549.95 584.355L589.773 634.283L663.874 622.005Z" fill="#1D1F3E" fill-opacity="0.13"/>
</g>
</g>
<g opacity="0.75">
<g opacity="0.75">
<path opacity="0.75" d="M706.172 564.233C706.347 564.584 706.307 565.025 706.059 565.405L662.552 630.895C662.275 631.314 661.792 631.594 661.28 631.639L580.48 638.83C579.969 638.875 579.507 638.677 579.274 638.303L541.98 580.003C541.747 579.63 541.768 579.152 542.043 578.741L585.55 513.25C585.828 512.831 586.311 512.552 586.822 512.506L667.623 505.316C668.134 505.27 668.596 505.468 668.829 505.842L706.123 564.142C706.143 564.17 706.161 564.206 706.172 564.233ZM660.579 629.182L703.193 565.028L666.655 507.923L587.506 514.962L544.894 579.107L581.432 636.213L660.579 629.182Z" fill="#1D1F3E" fill-opacity="0.13"/>
</g>
</g>
<g opacity="0.75">
<g opacity="0.75">
<path opacity="0.75" d="M677.957 504.591L710.899 570.421C711.092 570.809 711.02 571.3 710.711 571.692L658.13 638.522C657.82 638.922 657.306 639.173 656.795 639.176L571.27 640.185C570.76 640.188 570.325 639.958 570.134 639.561L537.193 573.731C537 573.344 537.072 572.852 537.38 572.461L589.961 505.631C590.272 505.231 590.786 504.979 591.296 504.976L676.821 503.967C677.322 503.964 677.755 504.202 677.957 504.591ZM707.928 571.091L675.619 506.532L591.742 507.518L540.173 573.062L572.482 637.621L656.359 636.635L707.928 571.091Z" fill="#1D1F3E" fill-opacity="0.13"/>
</g>
</g>
<g opacity="0.75">
<g opacity="0.75">
<path opacity="0.75" d="M687.628 503.89C687.647 503.926 687.658 503.953 687.667 503.989L715.25 577.565C715.4 577.976 715.281 578.464 714.938 578.844L652.69 646.374C652.337 646.754 651.815 646.962 651.313 646.932L561.489 640.894C560.987 640.864 560.586 640.576 560.434 640.174L532.851 566.597C532.701 566.187 532.82 565.699 533.163 565.318L595.411 497.788C595.764 497.408 596.286 497.2 596.788 497.231L686.609 503.276C687.066 503.303 687.444 503.537 687.628 503.89ZM712.249 578.011L685.162 505.764L596.964 499.83L535.845 566.142L562.923 638.388L651.12 644.322L712.249 578.011Z" fill="#1D1F3E" fill-opacity="0.13"/>
</g>
</g>
<g opacity="0.75">
<g opacity="0.75">
<path opacity="0.75" d="M697.568 504.154C697.598 504.217 697.627 504.28 697.643 504.359L718.702 585.571C718.81 585.995 718.645 586.478 718.263 586.829L646.072 654.104C645.687 654.463 645.157 654.636 644.66 654.554L551.409 640.616C550.919 640.544 550.551 640.242 550.436 639.809L529.377 558.597C529.27 558.173 529.434 557.69 529.816 557.34L602.007 490.064C602.39 489.714 602.923 489.532 603.419 489.614L696.67 503.552C697.079 503.608 697.414 503.829 697.568 504.154ZM715.712 585.785L695.013 505.949L603.349 492.248L532.388 558.376L553.09 638.204L644.753 651.905L715.712 585.785Z" fill="#1D1F3E" fill-opacity="0.13"/>
</g>
</g>
<g opacity="0.75">
<g opacity="0.75">
<path opacity="0.75" d="M707.768 505.368C707.818 505.458 707.845 505.564 707.86 505.677L721.274 594.395C721.34 594.831 721.133 595.3 720.72 595.63L638.327 661.684C637.914 662.014 637.378 662.143 636.901 662.029L541.093 639.365C540.617 639.251 540.286 638.919 540.222 638.475L526.808 549.756C526.742 549.321 526.949 548.851 527.362 548.522L609.756 482.467C610.169 482.138 610.704 482.009 611.181 482.123L706.989 504.787C707.351 504.873 707.632 505.08 707.768 505.368ZM718.319 594.38L705.119 507.08L610.838 484.785L529.758 549.789L542.959 637.088L637.239 659.383L718.319 594.38Z" fill="#1D1F3E" fill-opacity="0.13"/>
</g>
</g>
<g opacity="0.75">
<g opacity="0.75">
<path opacity="0.75" d="M718.284 507.514C718.342 507.64 718.378 507.78 718.393 507.927L723.055 604.06C723.08 604.507 722.82 604.962 722.388 605.263L629.476 669.173C629.043 669.475 628.493 669.559 628.045 669.414L530.472 637.191C530.017 637.036 529.724 636.674 529.708 636.227L525.047 540.095C525.022 539.647 525.281 539.192 525.714 538.891L618.626 474.981C619.058 474.68 619.608 474.595 620.056 474.741L717.621 506.963C717.92 507.068 718.157 507.262 718.284 507.514ZM720.144 603.816L715.558 509.121L619.456 477.381L527.942 540.328L532.528 635.024L628.63 666.763L720.144 603.816Z" fill="#1D1F3E" fill-opacity="0.13"/>
</g>
</g>
<g opacity="0.75">
<g opacity="0.75">
<path opacity="0.75" d="M729.012 510.692C729.091 510.845 729.124 511.028 729.118 511.215L723.871 614.576C723.848 615.027 723.555 615.469 723.106 615.733L619.47 676.475C619.021 676.74 618.472 676.79 618.037 676.603L519.648 633.984C519.222 633.799 518.967 633.407 518.99 632.956L524.237 529.595C524.26 529.144 524.553 528.702 525.002 528.438L628.648 467.697C629.097 467.432 629.645 467.382 630.08 467.569L728.469 510.188C728.713 510.288 728.897 510.468 729.012 510.692ZM721.055 614.093L726.229 512.195L629.217 470.178L527.04 530.06L521.866 631.958L618.869 673.974L721.055 614.093Z" fill="#1D1F3E" fill-opacity="0.13"/>
</g>
</g>
<g opacity="0.75">
<g opacity="0.75">
<path opacity="0.75" d="M739.856 514.984C739.952 515.173 739.985 515.389 739.95 515.616L723.622 625.889C723.551 626.343 723.228 626.764 722.753 626.991L608.27 683.435C607.802 683.671 607.26 683.67 606.854 683.452L508.689 629.622C508.283 629.404 508.083 628.984 508.142 628.537L524.47 518.264C524.541 517.81 524.864 517.39 525.339 517.162L639.831 460.72C640.308 460.484 640.841 460.484 641.247 460.702L739.412 514.533C739.607 514.637 739.759 514.796 739.856 514.984ZM720.902 625.194L737.006 516.383L640.146 463.265L527.181 518.959L511.077 627.77L607.937 680.887L720.902 625.194Z" fill="#1D1F3E" fill-opacity="0.13"/>
</g>
</g>
<g opacity="0.75">
<g opacity="0.75">
<path opacity="0.75" d="M750.691 520.502C750.796 520.725 750.829 520.975 750.764 521.241L722.174 638.003C722.067 638.452 721.695 638.85 721.21 639.051L595.876 689.984C595.392 690.185 594.863 690.142 594.486 689.893L497.742 624.065C497.367 623.808 497.208 623.376 497.315 622.927L525.905 506.165C526.012 505.716 526.384 505.318 526.869 505.117L652.202 454.184C652.687 453.983 653.216 454.026 653.593 454.275L750.337 520.103C750.495 520.203 750.615 520.342 750.691 520.502ZM719.58 637.082L747.81 521.775L652.272 456.768L528.512 507.07L500.282 622.378L595.821 687.384L719.58 637.082Z" fill="#1D1F3E" fill-opacity="0.13"/>
</g>
</g>
<g opacity="0.75">
<g opacity="0.75">
<path opacity="0.75" d="M761.976 527.183C762.102 527.433 762.121 527.733 762.019 528.03L719.764 651.049C719.612 651.494 719.21 651.864 718.716 652.03L582.098 696.283C581.607 696.44 581.087 696.364 580.739 696.076L486.376 617.31C486.034 617.03 485.919 616.576 486.071 616.131L528.326 493.112C528.479 492.667 528.881 492.297 529.374 492.131L665.99 447.887C666.481 447.729 667.001 447.805 667.349 448.094L761.712 526.86C761.819 526.946 761.909 527.057 761.976 527.183ZM717.302 649.919L759.06 528.342L665.809 450.5L530.791 494.234L489.033 615.81L582.284 693.653L717.302 649.919Z" fill="#1D1F3E" fill-opacity="0.13"/>
</g>
</g>
<g opacity="0.75">
<g opacity="0.75">
<path opacity="0.75" d="M773.406 535.229C773.55 535.516 773.548 535.857 773.409 536.185L716.029 664.986C715.83 665.428 715.406 665.771 714.895 665.893L566.854 702.091C566.352 702.213 565.842 702.096 565.539 701.777L474.866 609.18C474.563 608.861 474.486 608.402 474.685 607.96L532.054 479.166C532.252 478.725 532.676 478.381 533.187 478.259L681.229 442.062C681.731 441.939 682.24 442.056 682.544 442.376L773.216 534.972C773.288 535.047 773.356 535.139 773.406 535.229ZM713.717 663.656L770.456 536.278L680.789 444.699L534.383 480.498L477.645 607.876L567.312 699.455L713.717 663.656Z" fill="#1D1F3E" fill-opacity="0.13"/>
</g>
</g>
<g opacity="0.75">
<g opacity="0.75">
<path opacity="0.75" d="M784.519 544.83C784.682 545.154 784.668 545.537 784.462 545.902L710.626 679.659C710.393 680.09 709.929 680.405 709.417 680.493L550.266 707.087C549.754 707.175 549.275 707.009 548.996 706.666L463.682 599.503C463.412 599.161 463.385 598.689 463.619 598.258L537.455 464.501C537.688 464.07 538.152 463.755 538.664 463.667L697.815 437.073C698.327 436.985 698.806 437.15 699.085 437.493L784.399 544.656C784.449 544.712 784.49 544.768 784.519 544.83ZM708.476 678.128L781.55 545.752L697.115 439.699L539.618 466.016L466.545 598.392L550.98 704.445L708.476 678.128Z" fill="#1D1F3E" fill-opacity="0.13"/>
</g>
</g>
<g opacity="0.75">
<g opacity="0.75">
<path opacity="0.75" d="M795.152 556.085C795.326 556.436 795.286 556.878 795.039 557.257L703.402 694.996C703.127 695.407 702.641 695.695 702.13 695.74L532.349 711.087C531.837 711.132 531.376 710.934 531.142 710.56L452.988 588.166C452.761 587.802 452.776 587.315 453.051 586.904L544.688 449.165C544.963 448.754 545.448 448.466 545.96 448.421L715.741 433.074C716.252 433.029 716.714 433.227 716.948 433.601L795.093 555.994C795.122 556.022 795.143 556.05 795.152 556.085ZM701.429 693.282L792.179 556.889L714.792 435.683L546.661 450.878L455.911 587.271L533.291 708.469L701.429 693.282Z" fill="#1D1F3E" fill-opacity="0.13"/>
</g>
</g>
<g opacity="0.75">
<g opacity="0.75">
<path opacity="0.75" d="M736.113 430.876L805.119 569.066C805.312 569.453 805.24 569.945 804.929 570.345L694.19 710.899C693.879 711.299 693.367 711.542 692.864 711.554L513.121 713.91C512.611 713.913 512.176 713.683 511.986 713.287L442.982 575.089C442.789 574.701 442.862 574.21 443.172 573.81L553.912 433.255C554.222 432.855 554.734 432.612 555.237 432.6L734.973 430.235C735.481 430.24 735.914 430.479 736.113 430.876ZM802.139 569.735L733.768 432.808L555.68 435.15L445.953 574.419L514.324 711.345L692.412 709.003L802.139 569.735Z" fill="#1D1F3E" fill-opacity="0.13"/>
</g>
</g>
<g opacity="0.75">
<g opacity="0.75">
<path opacity="0.75" d="M756.458 429.409C756.476 429.445 756.487 429.472 756.496 429.508L814.226 583.958C814.375 584.368 814.257 584.856 813.914 585.237L682.834 727.255C682.481 727.635 681.959 727.844 681.457 727.813L492.648 715.381C492.145 715.351 491.737 715.054 491.583 714.66L433.851 560.218C433.692 559.807 433.82 559.32 434.163 558.939L565.243 416.921C565.596 416.541 566.118 416.333 566.62 416.363L755.429 428.795C755.897 428.813 756.276 429.048 756.458 429.409ZM811.225 584.404L753.991 431.284L566.806 418.964L436.857 559.756L494.093 712.867L681.276 725.196L811.225 584.404Z" fill="#1D1F3E" fill-opacity="0.13"/>
</g>
</g>
<g opacity="0.75">
<g opacity="0.75">
<path opacity="0.75" d="M777.399 429.961C777.429 430.024 777.456 430.095 777.474 430.166L821.512 600.645C821.62 601.068 821.456 601.551 821.074 601.902L669.063 743.362C668.681 743.713 668.15 743.886 667.66 743.814L471.608 714.804C471.118 714.731 470.75 714.429 470.635 713.997L426.587 543.517C426.48 543.094 426.644 542.61 427.026 542.26L579.037 400.799C579.419 400.449 579.95 400.275 580.44 400.348L776.491 429.358C776.91 429.415 777.236 429.635 777.399 429.961ZM818.513 600.858L774.832 431.764L580.37 402.983L429.578 543.303L473.259 712.397L667.721 741.178L818.513 600.858Z" fill="#1D1F3E" fill-opacity="0.13"/>
</g>
</g>
<g opacity="0.75">
<g opacity="0.75">
<path opacity="0.75" d="M798.859 432.533C798.907 432.632 798.936 432.729 798.951 432.843L826.935 619.065C827.001 619.501 826.794 619.97 826.381 620.3L652.897 759.188C652.493 759.519 651.948 759.647 651.471 759.533L450.01 712.208C449.533 712.094 449.205 711.754 449.139 711.318L421.155 525.096C421.089 524.66 421.296 524.191 421.709 523.861L595.193 384.972C595.597 384.642 596.142 384.514 596.619 384.628L798.08 431.953C798.433 432.038 798.714 432.245 798.859 432.533ZM823.98 619.049L796.21 434.246L596.278 387.282L424.11 525.111L451.88 709.914L651.812 756.879L823.98 619.049Z" fill="#1D1F3E" fill-opacity="0.13"/>
</g>
</g>
<g opacity="0.75">
<g opacity="0.75">
<path opacity="0.75" d="M820.971 437.067C821.029 437.192 821.074 437.333 821.08 437.48L830.671 639.247C830.686 639.694 830.436 640.15 830.006 640.443L634.414 774.809C633.984 775.102 633.44 775.196 632.983 775.049L427.784 707.638C427.327 707.492 427.037 707.121 427.012 706.674L417.421 504.906C417.406 504.459 417.656 504.003 418.086 503.71L613.685 369.353C614.115 369.06 614.659 368.967 615.116 369.113L820.306 436.524C820.61 436.613 820.844 436.815 820.971 437.067ZM827.769 639.005L818.245 438.673L614.527 371.746L420.323 505.149L429.847 705.48L633.566 772.407L827.769 639.005Z" fill="#1D1F3E" fill-opacity="0.13"/>
</g>
</g>
<g opacity="0.75">
<g opacity="0.75">
<path opacity="0.75" d="M843.54 443.76C843.619 443.913 843.652 444.095 843.647 444.283L832.442 661.197C832.418 661.648 832.126 662.09 831.676 662.355L613.513 790.021C613.064 790.286 612.515 790.336 612.089 790.15L405.122 700.901C404.696 700.715 404.44 700.323 404.464 699.872L415.65 482.956C415.674 482.505 415.967 482.063 416.416 481.798L634.579 354.132C635.029 353.867 635.577 353.817 636.003 354.003L842.97 443.252C843.232 443.354 843.425 443.535 843.54 443.76ZM829.622 660.723L840.745 445.27L635.176 356.616L418.47 483.43L407.347 698.883L612.919 787.529L829.622 660.723Z" fill="#1D1F3E" fill-opacity="0.13"/>
</g>
</g>
<g opacity="0.75">
<g opacity="0.75">
<path opacity="0.75" d="M866.344 452.817C866.44 453.005 866.473 453.221 866.438 453.448L831.981 684.862C831.91 685.316 831.587 685.737 831.112 685.964L590.129 804.583C589.663 804.811 589.119 804.818 588.713 804.601L382.188 691.797C381.784 691.571 381.573 691.158 381.644 690.704L416.1 459.291C416.171 458.837 416.504 458.417 416.97 458.188L657.953 339.57C658.419 339.342 658.963 339.334 659.369 339.552L865.893 452.356C866.095 452.469 866.247 452.628 866.344 452.817ZM829.269 684.167L863.512 454.217L658.293 342.127L418.828 459.995L384.585 689.946L589.805 802.036L829.269 684.167Z" fill="#1D1F3E" fill-opacity="0.13"/>
</g>
</g>
<g opacity="0.75">
<g opacity="0.75">
<path opacity="0.75" d="M889.146 464.437C889.251 464.66 889.282 464.918 889.219 465.176L829.021 710.184C828.914 710.633 828.541 711.031 828.059 711.223L564.27 818.223C563.785 818.423 563.257 818.381 562.879 818.132L359.3 680.116C358.924 679.859 358.766 679.427 358.873 678.978L419.071 433.97C419.178 433.52 419.55 433.122 420.035 432.922L683.824 325.922C684.309 325.722 684.837 325.764 685.215 326.013L888.796 464.021C888.95 464.137 889.07 464.277 889.146 464.437ZM826.424 709.271L886.263 465.718L683.889 328.524L421.665 434.891L361.826 678.444L564.203 815.63L826.424 709.271Z" fill="#1D1F3E" fill-opacity="0.13"/>
</g>
</g>
<g opacity="0.75">
<g opacity="0.75">
<path opacity="0.75" d="M912.891 478.505C913.017 478.755 913.035 479.055 912.934 479.352L824.042 737.488C823.89 737.933 823.488 738.303 822.994 738.469L535.463 831.392C534.972 831.549 534.452 831.474 534.11 831.194L335.471 665.981C335.132 665.693 335.005 665.247 335.169 664.794L424.061 406.658C424.213 406.212 424.615 405.842 425.109 405.677L712.639 312.754C713.131 312.596 713.651 312.672 713.992 312.952L912.625 478.156C912.733 478.268 912.823 478.379 912.891 478.505ZM821.568 736.365L909.962 479.671L712.442 315.391L426.521 407.796L338.127 664.49L535.653 828.779L821.568 736.365Z" fill="#1D1F3E" fill-opacity="0.13"/>
</g>
</g>
<g opacity="0.75">
<g opacity="0.75">
<path opacity="0.75" d="M936.92 495.463C937.065 495.75 937.062 496.091 936.921 496.427L816.294 766.668C816.095 767.11 815.663 767.453 815.16 767.575L503.605 843.539C503.103 843.661 502.602 843.545 502.29 843.225L311.362 648.947C311.056 648.637 310.982 648.169 311.18 647.727L431.808 377.486C432.006 377.044 432.439 376.701 432.941 376.579L744.497 300.615C744.999 300.493 745.499 300.609 745.812 300.929L936.74 495.207C936.812 495.282 936.871 495.373 936.92 495.463ZM813.973 765.337L933.968 496.52L744.045 303.26L434.117 378.825L314.123 647.642L504.045 840.901L813.973 765.337Z" fill="#1D1F3E" fill-opacity="0.13"/>
</g>
</g>
<g opacity="0.75">
<g opacity="0.75">
<path opacity="0.75" d="M960.296 515.689C960.459 516.012 960.445 516.396 960.239 516.761L805.037 797.398C804.803 797.829 804.34 798.144 803.829 798.223L468.902 853.959C468.39 854.047 467.911 853.882 467.632 853.539L287.914 628.647C287.635 628.304 287.62 627.823 287.851 627.401L443.053 346.764C443.287 346.333 443.751 346.018 444.261 345.938L779.188 290.202C779.7 290.114 780.179 290.28 780.449 290.622L960.185 515.516C960.226 515.571 960.267 515.626 960.296 515.689ZM802.896 795.868L957.326 516.611L778.479 292.828L445.197 348.285L290.766 627.542L469.611 851.333L802.896 795.868Z" fill="#1D1F3E" fill-opacity="0.13"/>
</g>
</g>
<g opacity="0.75">
<g opacity="0.75">
<path opacity="0.75" d="M982.651 539.384C982.832 539.744 982.785 540.177 982.529 540.555L789.964 829.523C789.689 829.934 789.203 830.222 788.692 830.267L431.411 862.315C430.9 862.361 430.438 862.162 430.202 861.797L265.488 604.868C265.252 604.503 265.276 604.017 265.554 603.598L458.118 314.63C458.396 314.21 458.879 313.931 459.39 313.885L816.671 281.838C817.183 281.792 817.644 281.99 817.88 282.356L982.594 539.284C982.621 539.321 982.642 539.349 982.651 539.384ZM787.999 827.81L979.671 540.179L815.722 284.447L460.092 316.343L268.421 603.974L432.37 859.707L787.999 827.81Z" fill="#1D1F3E" fill-opacity="0.13"/>
</g>
</g>
<g opacity="0.75">
<g opacity="0.75">
<path opacity="0.75" d="M1003.58 566.716C1003.78 567.104 1003.71 567.595 1003.39 567.995L770.743 862.849C770.433 863.249 769.921 863.492 769.417 863.504L391.208 868.218C390.697 868.221 390.264 867.982 390.072 867.594L244.506 577.445C244.313 577.057 244.385 576.566 244.696 576.166L477.347 281.312C477.658 280.912 478.17 280.669 478.673 280.657L856.883 275.943C857.393 275.94 857.829 276.171 858.019 276.567L1003.58 566.716ZM768.972 860.962L1000.61 567.395L855.69 278.509L479.128 283.2L247.489 576.767L392.41 865.652L768.972 860.962Z" fill="#1D1F3E" fill-opacity="0.13"/>
</g>
</g>
<g opacity="0.75">
<g opacity="0.75">
<path opacity="0.75" d="M900.715 273.52C900.736 273.548 900.745 273.583 900.754 273.619L1022.68 597.958C1022.84 598.369 1022.72 598.856 1022.37 599.237L747.037 897.137C746.684 897.516 746.162 897.725 745.66 897.694L348.395 871.255C347.893 871.224 347.496 870.954 347.33 870.534L225.407 546.204C225.248 545.793 225.375 545.305 225.719 544.925L501.053 247.025C501.406 246.645 501.929 246.437 502.431 246.467L899.696 272.907C900.161 272.934 900.54 273.168 900.715 273.52ZM1019.69 598.405L898.257 275.396L502.617 249.068L228.401 545.749L349.836 868.757L745.476 895.085L1019.69 598.405Z" fill="#1D1F3E" fill-opacity="0.13"/>
</g>
</g>
<g opacity="0.75">
<g opacity="0.75">
<path opacity="0.75" d="M944.635 274.725C944.665 274.788 944.695 274.851 944.712 274.922L1037.9 632.963C1038.02 633.387 1037.85 633.87 1037.47 634.23L718.216 930.925C717.833 931.276 717.302 931.449 716.812 931.377L304.365 870.031C303.875 869.958 303.499 869.647 303.392 869.224L210.189 511.19C210.072 510.766 210.246 510.283 210.621 509.923L529.884 213.237C530.266 212.886 530.797 212.713 531.287 212.785L943.734 274.131C944.155 274.18 944.479 274.409 944.635 274.725ZM1034.91 633.185L942.077 276.529L531.208 215.419L213.182 510.967L306.016 867.624L716.885 928.733L1034.91 633.185Z" fill="#1D1F3E" fill-opacity="0.13"/>
</g>
</g>
<g opacity="0.75">
<g opacity="0.75">
<path opacity="0.75" d="M989.677 280.166C989.726 280.257 989.753 280.363 989.771 280.467L1049.27 671.622C1049.34 672.057 1049.13 672.535 1048.72 672.856L684.422 964.121C684.008 964.451 683.473 964.58 682.996 964.466L259.195 864.568C258.718 864.453 258.39 864.113 258.324 863.677L198.822 472.531C198.756 472.096 198.966 471.618 199.377 471.297L563.678 180.041C564.082 179.71 564.627 179.582 565.104 179.696L988.904 279.595C989.25 279.671 989.529 279.886 989.677 280.166ZM1046.31 671.614L987.027 281.879L564.756 182.341L201.778 472.547L261.063 862.282L683.327 961.811L1046.31 671.614Z" fill="#1D1F3E" fill-opacity="0.13"/>
</g>
</g>
<g opacity="0.75">
<g opacity="0.75">
<path opacity="0.75" d="M1036.06 289.719C1036.11 289.844 1036.16 289.986 1036.16 290.132L1057.07 713.999C1057.09 714.446 1056.84 714.902 1056.4 715.203L645.717 996.916C645.287 997.209 644.743 997.303 644.286 997.156L212.7 854.986C212.246 854.831 211.953 854.469 211.937 854.022L191.023 430.155C190.998 429.707 191.258 429.252 191.69 428.951L602.374 147.246C602.804 146.953 603.347 146.859 603.804 147.005L1035.39 289.159C1035.69 289.265 1035.93 289.467 1036.06 289.719ZM1054.17 713.756L1033.33 291.334L603.21 149.655L193.923 430.406L214.764 852.828L644.892 994.499L1054.17 713.756Z" fill="#1D1F3E" fill-opacity="0.13"/>
</g>
</g>
<g opacity="0.75">
<g opacity="0.75">
<path opacity="0.75" d="M1083.39 303.798C1083.47 303.951 1083.5 304.134 1083.5 304.321L1060.75 760.057C1060.73 760.508 1060.44 760.95 1059.99 761.215L601.967 1028.84C601.518 1029.11 600.97 1029.16 600.544 1028.97L165.264 840.862C164.838 840.676 164.582 840.284 164.606 839.833L187.338 384.097C187.361 383.646 187.654 383.204 188.103 382.939L646.124 115.312C646.574 115.047 647.122 114.997 647.548 115.183L1082.84 303.293C1083.09 303.402 1083.28 303.575 1083.39 303.798ZM1057.93 759.582L1080.6 305.301L646.721 117.796L190.157 384.571L167.487 838.852L601.38 1026.36L1057.93 759.582Z" fill="#1D1F3E" fill-opacity="0.13"/>
</g>
</g>
<g opacity="0.75">
<g opacity="0.75">
<path opacity="0.75" d="M1131.23 322.837C1131.33 323.025 1131.36 323.242 1131.32 323.469L1059.75 809.726C1059.69 810.181 1059.36 810.601 1058.88 810.837L553.016 1059.43C552.55 1059.65 552.006 1059.66 551.609 1059.45L117.313 821.778C116.907 821.56 116.707 821.14 116.766 820.693L188.339 334.428C188.401 333.973 188.733 333.553 189.21 333.317L695.076 84.7272C695.542 84.4989 696.086 84.4913 696.492 84.7093L1130.79 322.377C1130.98 322.497 1131.13 322.649 1131.23 322.837ZM1057.03 809.039L1128.39 324.245L695.398 87.2821L191.06 335.123L119.704 819.917L552.694 1056.87L1057.03 809.039Z" fill="#1D1F3E" fill-opacity="0.13"/>
</g>
</g>
</g>
</svg>